<svg width="14" height="17" viewBox="0 0 14 17" fill="none" xmlns="http://www.w3.org/2000/svg"><path d="M13.393 12.71a8.87 8.87 0 0 1-.873 1.577c-.46.657-.835 1.112-1.125 1.365-.45.415-.93.627-1.446.64-.37 0-.816-.106-1.335-.32-.521-.214-1-.32-1.438-.32-.459 0-.951.106-1.478.32-.527.214-.952.325-1.277.337-.494.02-.987-.198-1.478-.657-.314-.275-.706-.746-1.177-1.413-.504-.713-.919-1.54-1.244-2.482C.174 10.739 0 9.754 0 8.799c0-1.093.235-2.035.706-2.825a4.152 4.152 0 0 1 1.48-1.503 3.966 3.966 0 0 1 1.999-.567c.392 0 .907.122 1.547.362.637.24 1.047.362 1.226.362.135 0 .59-.142 1.36-.427.73-.263 1.346-.372 1.85-.33 1.366.111 2.393.652 3.075 1.627-1.222.744-1.826 1.785-1.814 3.121.01 1.04.387 1.907 1.126 2.594.334.32.708.566 1.124.741-.09.263-.185.515-.286.756zM10.259.326c0 .816-.297 1.578-.888 2.283-.714.838-1.577 1.322-2.513 1.245a2.552 2.552 0 0 1-.02-.309c0-.783.34-1.62.943-2.306A3.63 3.63 0 0 1 8.929.374C9.392.147 9.83.02 10.242 0c.012.109.017.218.017.326z" fill="#0E101A"/></svg>