<svg width="16" height="17" viewBox="0 0 16 17" xmlns="http://www.w3.org/2000/svg"><g fill="none" fill-rule="evenodd"><path d="M3.345 8.17c0-.519.087-1.016.24-1.483L.893 4.631a7.985 7.985 0 0 0-.82 3.54c0 1.271.295 2.471.819 3.536l2.69-2.06a4.727 4.727 0 0 1-.237-1.477" fill="#FBBC05"/><path d="M8.073 3.45c1.127 0 2.145.4 2.945 1.053l2.327-2.324C11.927.944 10.11.182 8.073.182a7.976 7.976 0 0 0-7.18 4.45l2.692 2.055A4.714 4.714 0 0 1 8.073 3.45" fill="#EA4335"/><path d="M8.073 12.89a4.714 4.714 0 0 1-4.488-3.237L.893 11.71a7.976 7.976 0 0 0 7.18 4.45c1.951 0 3.814-.693 5.212-1.991l-2.556-1.976c-.72.454-1.629.699-2.656.699" fill="#34A853"/><path d="M15.71 8.17c0-.472-.074-.98-.183-1.452H8.073v3.086h4.29c-.214 1.053-.798 1.862-1.634 2.388l2.556 1.976c1.469-1.363 2.424-3.394 2.424-5.998" fill="#4285F4"/></g></svg>