<svg width="29" height="29" viewBox="0 0 29 29" fill="none" xmlns="http://www.w3.org/2000/svg">
<path d="M20.6629 9.65L15.0029 4L9.34293 9.65C7.78293 11.21 7.00293 13.29 7.00293 15.29C7.00293 17.29 7.78293 19.4 9.34293 20.96C10.9029 22.52 12.9529 23.31 15.0029 23.31C17.0529 23.31 19.1029 22.52 20.6629 20.96C22.2229 19.4 23.0029 17.29 23.0029 15.29C23.0029 13.29 22.2229 11.21 20.6629 9.65ZM9.00293 15.65C9.01293 13.65 9.62293 12.38 10.7629 11.25L15.0029 6.92L19.2429 11.3C20.3829 12.42 20.9929 13.65 21.0029 15.65H9.00293Z" fill="black" fill-opacity="0.36"/>
<line x1="2.80273" y1="26.0767" x2="26.1373" y2="2.74222" stroke="#FD547F" stroke-width="3" stroke-linecap="round"/>
</svg>
