<svg width="29" height="29" viewBox="0 0 29 29" fill="none" xmlns="http://www.w3.org/2000/svg">
<line x1="2.80273" y1="26.0767" x2="26.1373" y2="2.74222" stroke="#FD547F" stroke-width="3" stroke-linecap="round"/>
<path d="M9.5 15.5C8.95 15.5 8.5 15.95 8.5 16.5C8.5 17.05 8.95 17.5 9.5 17.5C10.05 17.5 10.5 17.05 10.5 16.5C10.5 15.95 10.05 15.5 9.5 15.5ZM9.5 19.5C8.95 19.5 8.5 19.95 8.5 20.5C8.5 21.05 8.95 21.5 9.5 21.5C10.05 21.5 10.5 21.05 10.5 20.5C10.5 19.95 10.05 19.5 9.5 19.5ZM9.5 11.5C8.95 11.5 8.5 11.95 8.5 12.5C8.5 13.05 8.95 13.5 9.5 13.5C10.05 13.5 10.5 13.05 10.5 12.5C10.5 11.95 10.05 11.5 9.5 11.5ZM6.5 12C6.22 12 6 12.22 6 12.5C6 12.78 6.22 13 6.5 13C6.78 13 7 12.78 7 12.5C7 12.22 6.78 12 6.5 12ZM9.5 7.5C8.95 7.5 8.5 7.95 8.5 8.5C8.5 9.05 8.95 9.5 9.5 9.5C10.05 9.5 10.5 9.05 10.5 8.5C10.5 7.95 10.05 7.5 9.5 7.5ZM24.5 13C24.78 13 25 12.78 25 12.5C25 12.22 24.78 12 24.5 12C24.22 12 24 12.22 24 12.5C24 12.78 24.22 13 24.5 13ZM17.5 9.5C18.05 9.5 18.5 9.05 18.5 8.5C18.5 7.95 18.05 7.5 17.5 7.5C16.95 7.5 16.5 7.95 16.5 8.5C16.5 9.05 16.95 9.5 17.5 9.5ZM17.5 6C17.78 6 18 5.78 18 5.5C18 5.22 17.78 5 17.5 5C17.22 5 17 5.22 17 5.5C17 5.78 17.22 6 17.5 6ZM6.5 16C6.22 16 6 16.22 6 16.5C6 16.78 6.22 17 6.5 17C6.78 17 7 16.78 7 16.5C7 16.22 6.78 16 6.5 16ZM13.5 23C13.22 23 13 23.22 13 23.5C13 23.78 13.22 24 13.5 24C13.78 24 14 23.78 14 23.5C14 23.22 13.78 23 13.5 23ZM13.5 6C13.78 6 14 5.78 14 5.5C14 5.22 13.78 5 13.5 5C13.22 5 13 5.22 13 5.5C13 5.78 13.22 6 13.5 6ZM13.5 9.5C14.05 9.5 14.5 9.05 14.5 8.5C14.5 7.95 14.05 7.5 13.5 7.5C12.95 7.5 12.5 7.95 12.5 8.5C12.5 9.05 12.95 9.5 13.5 9.5ZM13.5 15C12.67 15 12 15.67 12 16.5C12 17.33 12.67 18 13.5 18C14.33 18 15 17.33 15 16.5C15 15.67 14.33 15 13.5 15ZM21.5 15.5C20.95 15.5 20.5 15.95 20.5 16.5C20.5 17.05 20.95 17.5 21.5 17.5C22.05 17.5 22.5 17.05 22.5 16.5C22.5 15.95 22.05 15.5 21.5 15.5ZM21.5 19.5C20.95 19.5 20.5 19.95 20.5 20.5C20.5 21.05 20.95 21.5 21.5 21.5C22.05 21.5 22.5 21.05 22.5 20.5C22.5 19.95 22.05 19.5 21.5 19.5ZM21.5 11.5C20.95 11.5 20.5 11.95 20.5 12.5C20.5 13.05 20.95 13.5 21.5 13.5C22.05 13.5 22.5 13.05 22.5 12.5C22.5 11.95 22.05 11.5 21.5 11.5ZM21.5 7.5C20.95 7.5 20.5 7.95 20.5 8.5C20.5 9.05 20.95 9.5 21.5 9.5C22.05 9.5 22.5 9.05 22.5 8.5C22.5 7.95 22.05 7.5 21.5 7.5ZM24.5 16C24.22 16 24 16.22 24 16.5C24 16.78 24.22 17 24.5 17C24.78 17 25 16.78 25 16.5C25 16.22 24.78 16 24.5 16ZM17.5 19.5C16.95 19.5 16.5 19.95 16.5 20.5C16.5 21.05 16.95 21.5 17.5 21.5C18.05 21.5 18.5 21.05 18.5 20.5C18.5 19.95 18.05 19.5 17.5 19.5ZM17.5 23C17.22 23 17 23.22 17 23.5C17 23.78 17.22 24 17.5 24C17.78 24 18 23.78 18 23.5C18 23.22 17.78 23 17.5 23ZM13.5 11C12.67 11 12 11.67 12 12.5C12 13.33 12.67 14 13.5 14C14.33 14 15 13.33 15 12.5C15 11.67 14.33 11 13.5 11ZM13.5 19.5C12.95 19.5 12.5 19.95 12.5 20.5C12.5 21.05 12.95 21.5 13.5 21.5C14.05 21.5 14.5 21.05 14.5 20.5C14.5 19.95 14.05 19.5 13.5 19.5ZM17.5 15C16.67 15 16 15.67 16 16.5C16 17.33 16.67 18 17.5 18C18.33 18 19 17.33 19 16.5C19 15.67 18.33 15 17.5 15ZM17.5 11C16.67 11 16 11.67 16 12.5C16 13.33 16.67 14 17.5 14C18.33 14 19 13.33 19 12.5C19 11.67 18.33 11 17.5 11Z" fill="black" fill-opacity="0.36"/>
</svg>
