<svg width="17" height="17" viewBox="0 0 17 17" xmlns="http://www.w3.org/2000/svg"><g fill="none" fill-rule="evenodd"><path d="M17 8.5a8.5 8.5 0 1 0-9.828 8.397v-5.94H5.014V8.5h2.158V6.627c0-2.13 1.269-3.307 3.21-3.307.93 0 1.903.166 1.903.166v2.092h-1.072c-1.056 0-1.385.655-1.385 1.328V8.5h2.358l-.377 2.457h-1.98v5.94A8.502 8.502 0 0 0 17 8.5" fill="#1877F2"/><path d="M11.809 10.957l.377-2.457H9.828V6.906c0-.673.33-1.328 1.385-1.328h1.072V3.486s-.973-.166-1.903-.166c-1.941 0-3.21 1.177-3.21 3.307V8.5H5.014v2.457h2.158v5.94a8.564 8.564 0 0 0 2.656 0v-5.94h1.98" fill="#FFF"/></g></svg>