<svg width="144" height="178" viewBox="0 0 144 178" fill="none" xmlns="http://www.w3.org/2000/svg">
<path fill-rule="evenodd" clip-rule="evenodd" d="M144 111.013C144 65.8364 108.281 0 72 0C35.7192 0 0 65.8364 0 111.013C0 156.189 25.6081 177.231 72 177.231C118.392 177.231 144 156.189 144 111.013ZM113.999 109.065C113.999 80.0231 91.7117 41.6567 71.9995 41.6567C52.2872 41.6567 29.9995 80.0231 29.9995 109.065C29.9995 138.107 42.1761 150.614 71.9995 150.614C101.823 150.614 113.999 138.107 113.999 109.065ZM72.0001 75.3068C85.255 75.3068 96.0001 85.7704 96.0001 98.6779C96.0001 111.585 85.255 122.049 72.0001 122.049C58.7453 122.049 48.0001 111.585 48.0001 98.6779C48.0001 85.7704 58.7453 75.3068 72.0001 75.3068Z" fill="white"/>
</svg>
